<mxfile host="Electron" agent="Mozilla/5.0 (Windows NT 10.0; Win64; x64) AppleWebKit/537.36 (KHTML, like Gecko) draw.io/26.2.15 Chrome/134.0.6998.205 Electron/35.2.1 Safari/537.36" version="26.2.15">
  <diagram name="Page-1" id="f3A_aKgBy7DDzQGBdMqS">
    <mxGraphModel dx="2025" dy="665" grid="1" gridSize="10" guides="1" tooltips="1" connect="1" arrows="1" fold="1" page="1" pageScale="1" pageWidth="1169" pageHeight="1654" math="0" shadow="0">
      <root>
        <mxCell id="0" />
        <mxCell id="1" parent="0" />
        <mxCell id="zOAQyC9b1n6MCmylXdab-1" value="USB-C" style="rounded=1;whiteSpace=wrap;html=1;" parent="1" vertex="1">
          <mxGeometry x="-50" y="80" width="120" height="60" as="geometry" />
        </mxCell>
        <mxCell id="AAwqku-gjiyVytWTCLUe-1" value="ESP32-C3FH4" style="whiteSpace=wrap;html=1;fillColor=#fff2cc;strokeColor=#d6b656;" vertex="1" parent="1">
          <mxGeometry x="280" y="80" width="200" height="340" as="geometry" />
        </mxCell>
        <mxCell id="AAwqku-gjiyVytWTCLUe-2" style="edgeStyle=none;curved=1;rounded=0;orthogonalLoop=1;jettySize=auto;html=1;entryX=0.01;entryY=0.088;entryDx=0;entryDy=0;entryPerimeter=0;fontSize=12;startSize=8;endSize=8;" edge="1" parent="1" source="zOAQyC9b1n6MCmylXdab-1" target="AAwqku-gjiyVytWTCLUe-1">
          <mxGeometry relative="1" as="geometry" />
        </mxCell>
        <mxCell id="AAwqku-gjiyVytWTCLUe-3" value="USB_DN/USB_DP" style="text;html=1;align=center;verticalAlign=middle;resizable=0;points=[];autosize=1;strokeColor=none;fillColor=none;fontSize=16;" vertex="1" parent="1">
          <mxGeometry x="75" y="70" width="160" height="30" as="geometry" />
        </mxCell>
        <mxCell id="AAwqku-gjiyVytWTCLUe-5" value="BOOT BUTTON" style="rounded=1;whiteSpace=wrap;html=1;" vertex="1" parent="1">
          <mxGeometry x="-50" y="170" width="120" height="60" as="geometry" />
        </mxCell>
        <mxCell id="AAwqku-gjiyVytWTCLUe-6" style="edgeStyle=none;curved=1;rounded=0;orthogonalLoop=1;jettySize=auto;html=1;entryX=0.005;entryY=0.35;entryDx=0;entryDy=0;entryPerimeter=0;fontSize=12;startSize=8;endSize=8;" edge="1" parent="1" source="AAwqku-gjiyVytWTCLUe-5" target="AAwqku-gjiyVytWTCLUe-1">
          <mxGeometry relative="1" as="geometry" />
        </mxCell>
        <mxCell id="AAwqku-gjiyVytWTCLUe-7" value="BOOT" style="text;html=1;align=center;verticalAlign=middle;resizable=0;points=[];autosize=1;strokeColor=none;fillColor=none;fontSize=16;" vertex="1" parent="1">
          <mxGeometry x="120" y="170" width="70" height="30" as="geometry" />
        </mxCell>
        <mxCell id="AAwqku-gjiyVytWTCLUe-8" value="RESET BUTTON" style="rounded=1;whiteSpace=wrap;html=1;" vertex="1" parent="1">
          <mxGeometry x="-50" y="260" width="120" height="60" as="geometry" />
        </mxCell>
        <mxCell id="AAwqku-gjiyVytWTCLUe-9" style="edgeStyle=none;curved=1;rounded=0;orthogonalLoop=1;jettySize=auto;html=1;entryX=0.005;entryY=0.35;entryDx=0;entryDy=0;entryPerimeter=0;fontSize=12;startSize=8;endSize=8;" edge="1" parent="1" source="AAwqku-gjiyVytWTCLUe-8">
          <mxGeometry relative="1" as="geometry">
            <mxPoint x="281" y="289" as="targetPoint" />
          </mxGeometry>
        </mxCell>
        <mxCell id="AAwqku-gjiyVytWTCLUe-10" value="CHIP_EN" style="text;html=1;align=center;verticalAlign=middle;resizable=0;points=[];autosize=1;strokeColor=none;fillColor=none;fontSize=16;" vertex="1" parent="1">
          <mxGeometry x="110" y="260" width="90" height="30" as="geometry" />
        </mxCell>
        <mxCell id="AAwqku-gjiyVytWTCLUe-13" value="TEST LED" style="rounded=1;whiteSpace=wrap;html=1;" vertex="1" parent="1">
          <mxGeometry x="-50" y="350" width="120" height="60" as="geometry" />
        </mxCell>
        <mxCell id="AAwqku-gjiyVytWTCLUe-14" style="edgeStyle=none;curved=1;rounded=0;orthogonalLoop=1;jettySize=auto;html=1;entryX=0.005;entryY=0.35;entryDx=0;entryDy=0;entryPerimeter=0;fontSize=12;startSize=8;endSize=8;" edge="1" parent="1" source="AAwqku-gjiyVytWTCLUe-13">
          <mxGeometry relative="1" as="geometry">
            <mxPoint x="281" y="379" as="targetPoint" />
          </mxGeometry>
        </mxCell>
        <mxCell id="AAwqku-gjiyVytWTCLUe-15" value="GPIO_10" style="text;html=1;align=center;verticalAlign=middle;resizable=0;points=[];autosize=1;strokeColor=none;fillColor=none;fontSize=16;" vertex="1" parent="1">
          <mxGeometry x="110" y="350" width="90" height="30" as="geometry" />
        </mxCell>
        <mxCell id="AAwqku-gjiyVytWTCLUe-22" value="STM32-UART" style="rounded=1;whiteSpace=wrap;html=1;strokeColor=#666666;dashed=1;fillColor=#f5f5f5;fontColor=#333333;" vertex="1" parent="1">
          <mxGeometry x="650" y="80" width="120" height="60" as="geometry" />
        </mxCell>
        <mxCell id="AAwqku-gjiyVytWTCLUe-23" style="edgeStyle=none;curved=1;rounded=0;orthogonalLoop=1;jettySize=auto;html=1;fontSize=12;startSize=8;endSize=8;" edge="1" parent="1" target="AAwqku-gjiyVytWTCLUe-22">
          <mxGeometry relative="1" as="geometry">
            <mxPoint x="480" y="110" as="sourcePoint" />
          </mxGeometry>
        </mxCell>
        <mxCell id="AAwqku-gjiyVytWTCLUe-24" value="UART0" style="text;html=1;align=center;verticalAlign=middle;resizable=0;points=[];autosize=1;strokeColor=none;fillColor=none;fontSize=16;" vertex="1" parent="1">
          <mxGeometry x="515" y="80" width="80" height="30" as="geometry" />
        </mxCell>
        <mxCell id="AAwqku-gjiyVytWTCLUe-25" value="ANTENNA" style="rounded=1;whiteSpace=wrap;html=1;strokeColor=#b85450;fillColor=#f8cecc;" vertex="1" parent="1">
          <mxGeometry x="650" y="180" width="120" height="60" as="geometry" />
        </mxCell>
        <mxCell id="AAwqku-gjiyVytWTCLUe-26" style="edgeStyle=none;curved=1;rounded=0;orthogonalLoop=1;jettySize=auto;html=1;fontSize=12;startSize=8;endSize=8;" edge="1" parent="1">
          <mxGeometry relative="1" as="geometry">
            <mxPoint x="480" y="214.41" as="sourcePoint" />
            <mxPoint x="650" y="214.41" as="targetPoint" />
          </mxGeometry>
        </mxCell>
        <mxCell id="AAwqku-gjiyVytWTCLUe-27" value="LNA_IN" style="text;html=1;align=center;verticalAlign=middle;resizable=0;points=[];autosize=1;strokeColor=none;fillColor=none;fontSize=16;" vertex="1" parent="1">
          <mxGeometry x="515" y="184.41" width="80" height="30" as="geometry" />
        </mxCell>
      </root>
    </mxGraphModel>
  </diagram>
</mxfile>
